<svg width="47" height="47" viewBox="0 0 47 47" fill="none" xmlns="http://www.w3.org/2000/svg">
<path d="M23.592 46.3904C10.7686 46.3904 0.370361 35.9708 0.370361 23.1952C0.370361 10.3864 10.7686 0 23.592 0C36.3822 0 46.8137 10.3864 46.8137 23.1952C46.8137 35.9708 36.3822 46.3904 23.592 46.3904Z" fill="white"/>
<path fill-rule="evenodd" clip-rule="evenodd" d="M19.9374 23.2946V36.7339C19.9374 36.933 20.1035 37.099 20.3028 37.099H25.286C25.4853 37.099 25.6514 36.933 25.6514 36.7339V23.0624H29.2725C29.4386 23.0624 29.6047 22.9296 29.638 22.7305L29.9702 18.6158C30.0034 18.4167 29.8373 18.2508 29.6047 18.2508H25.6182V15.3306C25.6182 14.6338 26.1829 14.1028 26.8474 14.1028H29.638C29.8373 14.1028 30.0034 13.9369 30.0034 13.7378V9.62307C30.0034 9.42397 29.8373 9.25806 29.638 9.25806H24.9538C22.1964 9.25806 19.9374 11.5145 19.9374 14.2688V18.2508H17.4458C17.2464 18.2508 17.0803 18.4167 17.0803 18.6158V22.7305C17.0803 22.9296 17.2464 23.0955 17.4458 23.0955H19.9374V23.2946Z" fill="#EC1C2D"/>
</svg>
