<svg width="47" height="47" viewBox="0 0 47 47" fill="none" xmlns="http://www.w3.org/2000/svg">
<path d="M22.7884 43.4862C33.8183 43.4862 42.7597 34.3906 42.7597 23.1706C42.7597 11.9506 33.8183 2.85498 22.7884 2.85498C11.7586 2.85498 2.81714 11.9506 2.81714 23.1706C2.81714 34.3906 11.7586 43.4862 22.7884 43.4862Z" fill="#EC1C2D"/>
<path d="M23.1325 46.93C10.4007 46.93 0.0622559 36.4373 0.0622559 23.5154C0.0622559 10.5935 10.4007 0.10083 23.1325 0.10083C35.8644 0.10083 46.2028 10.5935 46.2028 23.5154C46.2028 36.4373 35.8644 46.93 23.1325 46.93ZM30.9113 14.0011C29.9805 14.0011 29.2159 14.7771 29.2159 15.7218C29.2159 16.6665 29.9805 17.4425 30.9113 17.4425C31.8421 17.4425 32.6066 16.6665 32.6066 15.7218C32.6066 14.7771 31.8421 14.0011 30.9113 14.0011ZM23.2988 16.2279C19.3429 16.2279 16.1184 19.5005 16.1184 23.5154C16.1184 27.5303 19.3429 30.803 23.2988 30.803C27.2546 30.803 30.4791 27.5303 30.4791 23.5154C30.4791 19.5005 27.2546 16.2279 23.2988 16.2279ZM23.2988 28.1714C20.7723 28.1714 18.7113 26.0796 18.7113 23.5154C18.7113 20.9513 20.7723 18.8595 23.2988 18.8595C25.8252 18.8595 27.8862 20.9513 27.8862 23.5154C27.8862 26.0796 25.8584 28.1714 23.2988 28.1714ZM37.7925 17.4425C37.7925 12.5504 33.8699 8.56923 29.0497 8.56923H17.5146C12.6944 8.56923 8.77178 12.5504 8.77178 17.4425V29.1835C8.77178 34.0756 12.6944 38.0568 17.5146 38.0568H29.0497C33.8699 38.0568 37.7925 34.0756 37.7925 29.1835V17.4425ZM35.0333 29.1835C35.0333 32.5574 32.3407 35.2902 29.0165 35.2902H17.4813C14.1571 35.2902 11.4644 32.5574 11.4644 29.1835V17.4425C11.4644 14.0686 14.1571 11.3358 17.4813 11.3358H29.0165C32.3407 11.3358 35.0333 14.0686 35.0333 17.4425V29.1835Z" fill="white"/>
</svg>
