<svg width="48" height="47" viewBox="0 0 48 47" fill="none" xmlns="http://www.w3.org/2000/svg">
<path d="M24.0983 46.93C11.1534 46.93 0.683716 36.4604 0.683716 23.5154C0.683716 10.5705 11.1534 0.10083 24.0983 0.10083C37.0433 0.10083 47.5129 10.5705 47.5129 23.5154C47.5129 36.4269 37.0098 46.93 24.0983 46.93Z" fill="white"/>
<path d="M37.6313 16.5083C33.7444 16.5083 30.5884 13.3559 30.5884 9.47339H25.3062V29.848C25.3062 32.204 23.3794 34.1287 21.0207 34.1287C18.662 34.1287 16.7351 32.204 16.7351 29.848C16.7351 27.492 18.662 25.5674 21.0207 25.5674C21.4525 25.5674 21.9841 25.6337 22.3827 25.7665V20.3907C21.9509 20.3244 21.4858 20.2912 21.0207 20.2912C15.7385 20.2912 11.4529 24.5719 11.4529 29.848C11.4529 35.1242 15.7385 39.4048 21.0207 39.4048C26.3029 39.4048 30.5884 35.1242 30.5884 29.848V19.0634C32.5152 20.623 34.9404 21.5522 37.6313 21.5522V16.5083Z" fill="#FF1352"/>
<path d="M36.1362 15.0149C32.2494 15.0149 29.0933 11.8624 29.0933 7.97998H23.8112V28.3546C23.8112 30.7106 21.8843 32.6353 19.5256 32.6353C17.1669 32.6353 15.2401 30.7106 15.2401 28.3546C15.2401 25.9986 17.1669 24.0739 19.5256 24.0739C19.9575 24.0739 20.489 24.1403 20.8877 24.273V18.8973C20.4558 18.831 19.9907 18.7978 19.5256 18.7978C14.2434 18.7978 9.95789 23.0784 9.95789 28.3546C9.95789 33.6308 14.2434 37.9114 19.5256 37.9114C24.8078 37.9114 29.0933 33.6308 29.0933 28.3546V17.57C31.0202 19.1296 33.4453 20.0588 36.1362 20.0588V15.0149Z" fill="white"/>
<path d="M36.1363 16.3419C34.442 15.9769 32.9803 14.9814 31.9837 13.654C30.6216 12.6585 29.6582 11.1985 29.2928 9.5061H25.3394V29.8807C25.3394 32.2368 23.4126 34.1614 21.0539 34.1614C19.4925 34.1614 18.0972 33.3318 17.3663 32.0708C16.1039 31.3076 15.2734 29.9471 15.2734 28.3875C15.2734 26.0315 17.2002 24.1068 19.5589 24.1068C19.9908 24.1068 20.5223 24.1732 20.921 24.3059V20.2907C15.7052 20.3571 11.4861 24.6046 11.4861 29.8476C11.4861 32.104 12.2835 34.1946 13.5791 35.8206C15.2069 37.1147 17.2999 37.9111 19.5589 37.9111C24.8411 37.9111 29.1266 33.6305 29.1266 28.3543V17.5697C31.0535 19.1293 33.4786 20.0584 36.1696 20.0584V16.3419H36.1363Z" fill="#EC1C2D"/>
</svg>
