<svg width="367" height="358" viewBox="0 0 367 358" fill="none" xmlns="http://www.w3.org/2000/svg">
<path d="M69.5088 58.4553C69.2475 63.055 67.6864 66.6269 67.0782 71.182C62.4074 67.9459 58.7255 63.3671 54.6025 59.7173C53.4293 58.8646 52.504 57.7147 51.9217 56.3857C51.6633 55.7123 51.6657 54.9666 51.9284 54.2949C52.1912 53.6232 52.6953 53.074 53.3418 52.7551C54.5682 52.3067 56.0129 52.7355 57.1606 53.3709C60.7882 55.2439 65.719 56.8313 69.5088 58.4553Z" fill="#FEE4BC"/>
<path d="M117.203 57.4302C119.56 58.1485 120.834 57.0644 123.143 57.8173C279.826 109.02 335.244 224.413 337.992 227.688C336.445 230.99 314.239 322.557 305.45 355.301C209.478 178.238 141.355 110.05 117.458 89.5393C114.924 86.0528 111.708 83.1177 108.005 80.9123C108.005 80.9123 107.971 57.527 117.203 57.4302Z" fill="#08BC51"/>
<path d="M50.8882 22.723C55.0358 20.7283 59.0334 22.8103 63.0435 24.683C67.1961 26.5513 70.9458 29.2093 74.0838 32.5091C75.3186 33.7651 76.8831 35.0744 78.0734 36.3444C74.6174 31.5593 72.7763 25.28 69.1024 20.798C66.7099 18.1106 63.7817 15.9535 60.5058 14.4653C58.9272 13.6949 57.5845 12.5147 56.6179 11.048C56.3999 10.6958 54.5881 6.07008 55.5458 6.16109C58.8165 6.41264 62.0177 7.2365 65.0035 8.59513C72.6171 11.979 76.0399 16.9701 79.8581 24.0967C82.3046 28.719 83.4738 35.1013 87.0354 39.1001C88.3378 31.6789 83.6263 24.3238 79.6413 18.1005C78.6277 16.5207 68.8839 5.37353 70.5706 3.82754C72.2573 2.28155 78.0719 8.03887 79.3825 9.34943C83.2845 12.7928 86.8539 16.5957 90.0434 20.7079C92.0666 23.7975 93.4627 27.2548 94.1522 30.8831C94.3768 31.8494 96.6201 40.8782 96.0047 41.2863C100.223 38.4575 96.2601 25.9382 94.8411 22.2849C93.0997 18.0088 86.8066 9.97581 87.6818 8.08758C88.3197 6.75299 92.6968 10.5451 92.9659 10.8422C94.3835 12.2757 95.857 13.8873 97.1789 15.39C100.245 19.0499 102.441 23.3575 103.602 27.9889C104.27 30.9291 104.1 33.8189 104.754 36.8416C106.558 45.1864 109.041 50.8927 116.104 55.3294C119.154 57.2587 123.262 57.4771 126.053 59.1744C132.111 62.8993 119.398 87.3367 117.608 89.5214C104.21 74.2969 81.9532 79.9247 66.6011 70.9172C66.6542 70.5875 69.4291 58.9484 69.5087 58.4548L70.4164 59.1076C71.1945 59.6086 71.6919 59.8118 72.3866 60.0756C73.5143 60.453 74.7165 60.5526 75.891 60.3659C76.4478 60.3913 77.0026 60.2843 77.5101 60.0538C78.0176 59.8233 78.4632 59.4758 78.8105 59.0398C79.1703 58.3129 79.3023 57.4942 79.1892 56.691C78.8115 50.7746 75.5137 46.7126 72.2206 42.8839C69.9851 40.3353 67.5914 37.93 65.0535 35.6824C60.9337 31.8683 53.7886 26.89 52.36 35.7495C52.1107 37.2386 52.1956 38.7644 52.6085 40.2166C53.0214 41.6689 53.752 43.0111 54.7474 44.1462C55.8307 45.2933 57.253 46.3048 57.5634 47.9191C57.6107 48.3799 57.5622 48.8456 57.4209 49.2868C57.2796 49.728 57.0486 50.1352 56.7425 50.4829C56.4363 50.8306 56.0615 51.1112 55.6417 51.3071C55.2219 51.5029 54.7662 51.6099 54.3031 51.6212C52.6193 51.4675 51.0596 50.6709 49.948 49.3969L49.4927 48.943C47.3209 46.6592 45.716 43.897 44.8075 40.8792C43.8989 37.8613 43.712 34.6721 44.2619 31.5688C44.6529 29.6996 45.4488 27.9389 46.5936 26.4106C47.7385 24.8823 49.2044 23.6236 50.8882 22.723Z" fill="#FEE4BC"/>
</svg>
