<svg width="1110" height="858" viewBox="0 0 1110 858" fill="none" xmlns="http://www.w3.org/2000/svg">
<g opacity="0.65">
<mask id="mask0_1_322" style="mask-type:luminance" maskUnits="userSpaceOnUse" x="0" y="0" width="1110" height="858">
<path d="M1109.69 0H0V858H1109.69V0Z" fill="white"/>
</mask>
<g mask="url(#mask0_1_322)">
<g opacity="0.5">
<path d="M350.019 559.165L333.683 570.065C316.803 539.939 300.409 511.97 284.501 486.16L303.281 473.829C318.383 501.976 333.963 530.422 350.019 559.165Z" fill="#7F244A"/>
<path d="M370.112 519.675L347.275 521.881C346.53 481.529 345.09 443.663 342.954 408.283L369.114 405.946C369.123 443.286 369.455 481.196 370.112 519.675Z" fill="#7F244A"/>
<path d="M468.251 430.937L487.017 423.412C497.637 457.303 508.235 488.931 518.811 518.296L497.3 526.753C488.028 495.217 478.345 463.279 468.251 430.937Z" fill="#7F244A"/>
<path d="M475.881 555.37L469.774 536.104C504.374 528.04 536.71 519.837 566.784 511.493L573.599 533.582C541.451 540.464 508.878 547.726 475.881 555.37Z" fill="#7F244A"/>
<path d="M334.339 347.925L356.664 353.257C344.267 391.675 333.324 427.956 323.833 462.101L298.343 455.811C310.442 420.501 322.441 384.539 334.339 347.925Z" fill="#7F244A"/>
<path d="M608.033 404.553L598.288 383.778C636.031 369.515 671.213 355.437 703.834 341.543L714.813 365.405C679.67 377.96 644.077 391.009 608.033 404.553Z" fill="#7F244A"/>
<path d="M756.43 268.026L767.159 282.971C739.502 299.754 713.841 316.008 690.176 331.732L678.029 314.542C703.856 299.492 729.99 283.986 756.43 268.026Z" fill="#7F244A"/>
<path d="M828.054 283.943L805.44 288.027C801.342 247.815 796.772 210.137 791.729 174.994L817.64 170.502C820.757 207.773 824.228 245.586 828.054 283.943Z" fill="#7F244A"/>
<path d="M435.84 216.519L413.213 220.63C409.141 180.408 404.571 142.726 399.502 107.583L425.491 103.092C428.547 140.362 431.996 178.172 435.84 216.519Z" fill="#7F244A"/>
<path d="M462.919 285.61L447.094 302.289C420.006 272.294 394.03 244.636 369.166 219.316L387.407 200.326C411.921 228.535 437.092 256.963 462.919 285.61Z" fill="#7F244A"/>
<path d="M725.437 417.621L703.204 411.763C716.476 373.591 728.247 337.511 738.517 303.523L763.902 310.405C750.98 345.531 738.158 381.269 725.437 417.621Z" fill="#7F244A"/>
<path d="M429.169 110.315L444.652 93.3342C469.7 119.53 493.741 143.606 516.775 165.564L498.928 184.869C476.235 160.241 452.982 135.39 429.169 110.315Z" fill="#7F244A"/>
<path d="M336.388 615.596L319.998 599.522C350.396 572.985 378.447 547.512 404.151 523.103L422.773 541.62C394.214 565.67 365.419 590.329 336.388 615.596Z" fill="#7F244A"/>
<path d="M439.202 454.143L421.552 439.539C449.568 410.49 475.334 382.705 498.849 356.186L518.982 373.048C492.55 399.445 465.957 426.476 439.202 454.143Z" fill="#7F244A"/>
<path d="M420.383 515.367L443.089 512.005C445.899 552.279 449.274 590.022 453.214 625.236L427.212 628.9C425.277 591.62 423.001 553.776 420.383 515.367Z" fill="#7F244A"/>
<path d="M545.916 513.647L522.777 505.255C540.287 466.47 556.006 429.738 569.936 395.059L596.332 404.856C579.47 440.419 562.665 476.683 545.916 513.647Z" fill="#7F244A"/>
<path d="M402.024 70.7066L410.481 47.593C449.213 65.1996 485.901 81.0158 520.544 95.0415L510.682 121.412C475.154 104.462 438.935 87.5603 402.024 70.7066Z" fill="#7F244A"/>
<path d="M358.713 63.129L335.324 55.4858C351.564 16.1664 366.089 -21.043 378.897 -56.1423L405.596 -47.2777C389.898 -11.1453 374.271 25.657 358.713 63.129Z" fill="#7F244A"/>
<path d="M382.956 102.869L389.154 126.678C347.288 134.243 308.118 142.122 271.645 150.317L264.75 123.001C303.622 116.724 343.024 110.013 382.956 102.869Z" fill="#7F244A"/>
<path d="M370.913 486.121L374.932 463.585C413.988 473.715 450.846 482.509 485.507 489.969L480.714 515.788C444.774 505.728 408.174 495.839 370.913 486.121Z" fill="#7F244A"/>
<path d="M373.448 393.824L388.248 384.185C403.131 411.439 417.577 436.755 431.585 460.131L414.579 471.018C401.297 445.567 387.587 419.836 373.448 393.824Z" fill="#7F244A"/>
<path d="M453.634 354.899L454.948 372.51C423.902 372.37 394.757 372.807 367.512 373.823L366.198 353.664C394.88 354.277 424.025 354.689 453.634 354.899Z" fill="#7F244A"/>
<path d="M481.79 355.962L470.733 369.725C448.119 348.468 426.498 328.913 405.872 311.061L418.65 295.486C439.215 315.5 460.262 335.659 481.79 355.962Z" fill="#7F244A"/>
<path d="M471.915 339.481L465.02 323.223C494.446 313.347 521.892 303.537 547.361 293.792L555.122 312.441C527.728 321.082 499.992 330.095 471.915 339.481Z" fill="#7F244A"/>
<path d="M502.067 35.6817L518.325 28.7739C528.218 58.2087 538.037 85.6561 547.781 111.116L529.133 118.878C520.448 91.5002 511.426 63.7682 502.067 35.6817Z" fill="#7F244A"/>
<path d="M397.046 29.1809L411.492 39.3982C391.636 63.2647 373.43 86.0281 356.874 107.688L340.485 95.8689C359.212 74.1386 378.066 51.9093 397.046 29.1809Z" fill="#7F244A"/>
<path d="M535.489 424.646L523.328 411.842C547.431 392.257 569.695 373.433 590.12 355.371L603.922 370.119C581.273 387.84 558.462 406.015 535.489 424.646Z" fill="#7F244A"/>
<path d="M327.983 643.819L320.025 628.059C348.732 616.266 375.47 604.666 400.238 593.258L409.207 611.354C382.417 621.782 355.342 632.603 327.983 643.819Z" fill="#7F244A"/>
<path d="M523.341 356.015L540.414 360.467C530.337 389.814 521.358 417.546 513.479 443.663L493.977 438.41C503.862 411.417 513.65 383.953 523.341 356.015Z" fill="#7F244A"/>
<path d="M577.828 284.113L561.491 295.013C544.612 264.887 528.218 236.914 512.31 211.095L531.09 198.764C546.201 226.92 561.78 255.37 577.828 284.113Z" fill="#7F244A"/>
<path d="M409.956 350.302L390.769 354.583C385.98 320.386 380.854 288.373 375.391 258.544L397.375 253.869C401.236 285.545 405.43 317.689 409.956 350.302Z" fill="#7F244A"/>
<path d="M597.921 244.623L575.07 246.895C574.317 206.543 572.882 168.677 570.763 133.297L596.91 130.959C596.936 168.256 597.273 206.144 597.921 244.623Z" fill="#7F244A"/>
<path d="M696.02 155.872L714.813 148.4C725.45 182.3 736.052 213.928 746.62 243.284L725.095 251.741C715.824 220.17 706.132 188.214 696.02 155.872Z" fill="#7F244A"/>
<path d="M507.491 181.927L519.139 198.435C488.619 216.611 460.292 234.231 434.159 251.295L421.026 232.318C449.533 216.007 478.354 199.21 507.491 181.927Z" fill="#7F244A"/>
<path d="M303.635 223.493L289.636 208.915C317.083 186.362 342.442 164.684 365.712 143.882L381.603 160.679C355.837 181.07 329.848 202.007 303.635 223.493Z" fill="#7F244A"/>
<path d="M318.554 275.853L300.641 285.19C286.703 252.516 273.028 222.092 259.615 193.918L280.194 183.412C292.53 213.853 305.316 244.667 318.554 275.853Z" fill="#7F244A"/>
<path d="M703.677 280.318L697.57 261.052C732.17 252.98 764.506 244.772 794.579 236.428L801.395 258.531C769.264 265.412 736.692 272.675 703.677 280.318Z" fill="#7F244A"/>
<path d="M562.135 72.8735L584.46 78.2054C572.063 116.623 561.119 152.904 551.629 187.049L526.126 180.759C538.251 145.449 550.254 109.488 562.135 72.8735Z" fill="#7F244A"/>
<path d="M274.718 -8.35231L294.64 -19.699C311.878 16.8012 328.732 50.7405 345.2 82.119L322.31 94.9759C306.971 60.9097 291.107 26.4669 274.718 -8.35231Z" fill="#7F244A"/>
<path d="M564.183 340.545L547.794 324.47C578.191 297.933 606.247 272.46 631.96 248.051L650.569 266.594C622.01 290.627 593.215 315.277 564.183 340.545Z" fill="#7F244A"/>
<path d="M666.997 179.091L649.295 164.487C677.311 135.438 703.077 107.653 726.592 81.134L746.738 97.9964C720.341 124.393 693.761 151.425 666.997 179.091Z" fill="#7F244A"/>
<path d="M352.856 304.036L329.992 301.882C336.874 262.116 342.604 224.657 347.183 189.505L373.316 192.132C366.295 228.816 359.475 266.117 352.856 304.036Z" fill="#7F244A"/>
<path d="M648.192 240.329L670.898 236.967C673.708 277.24 677.083 314.984 681.023 350.197L655.008 353.861C653.09 316.555 650.818 278.711 648.192 240.329Z" fill="#7F244A"/>
<path d="M754.039 218.922L732.712 206.657C756.648 171.487 778.475 138.025 798.191 106.27L822.499 120.48C799.753 152.602 776.934 185.417 754.039 218.922Z" fill="#7F244A"/>
<path d="M598.709 211.069L602.78 188.468C641.853 198.589 678.712 207.383 713.355 214.851L708.562 240.67C672.57 230.654 635.952 220.787 598.709 211.069Z" fill="#7F244A"/>
<path d="M601.243 118.772L616.043 109.133C630.927 136.388 645.373 161.703 659.381 185.08L642.308 195.967C629.088 170.515 615.4 144.784 601.243 118.772Z" fill="#7F244A"/>
<path d="M681.43 79.847L682.743 97.458C651.698 97.3092 622.553 97.7469 595.307 98.7713L593.994 78.6125C622.675 79.2604 651.821 79.6719 681.43 79.847Z" fill="#7F244A"/>
<path d="M486.19 62.4988L472.992 74.2263C454.23 49.493 436.168 26.6158 418.807 5.59471L434.001 -7.70874C450.942 15.4836 468.338 38.8861 486.19 62.4988Z" fill="#7F244A"/>
<path d="M709.599 80.9107L698.528 94.6738C675.914 73.4076 654.298 53.853 633.68 36.01L646.445 20.3689C667.011 40.4094 688.062 60.59 709.599 80.9107Z" fill="#7F244A"/>
<path d="M699.71 64.4161L692.816 48.1709C722.25 38.2776 749.701 28.4674 775.17 18.7405L782.918 37.3889C755.541 46.0303 727.805 55.0393 699.71 64.4161Z" fill="#7F244A"/>
<path d="M470.247 317.063L452.085 307.871C470.628 277.227 487.481 248.165 502.645 220.682L523.355 231.32C505.678 259.328 487.976 287.909 470.247 317.063Z" fill="#7F244A"/>
<path d="M638.855 42.0247L642.939 61.9733C607.429 66.4121 574.16 71.2274 543.132 76.4192L538.628 53.5683C571.581 50.0838 604.99 46.2359 638.855 42.0247Z" fill="#7F244A"/>
<path d="M576.974 451.766L593.837 446.512C600.674 476.797 607.652 505.102 614.77 531.429L595.426 537.246C589.612 509.151 583.462 480.658 576.974 451.766Z" fill="#7F244A"/>
<path d="M555.779 368.767L547.82 353.007C576.528 341.214 603.266 329.614 628.033 318.206L637.016 336.303C610.252 346.739 583.173 357.56 555.779 368.767Z" fill="#7F244A"/>
<path d="M585.589 48.289L573.77 35.1562C598.284 16.1663 620.99 -2.11003 641.888 -19.6729L655.31 -4.55709C632.275 12.5942 609.035 30.2096 585.589 48.289Z" fill="#7F244A"/>
<path d="M307.667 359.836L296.688 345.995C322.445 328.651 346.303 311.902 368.26 295.749L380.697 311.666C356.585 327.259 332.242 343.315 307.667 359.836Z" fill="#7F244A"/>
<path d="M751.177 80.9631L768.249 85.3626C758.111 114.701 749.137 142.433 741.327 168.558L721.812 163.305C731.671 136.374 741.459 108.927 751.177 80.9631Z" fill="#7F244A"/>
<path d="M791.598 97.8257L774.198 94.7921C781.893 64.7181 788.569 36.3427 794.225 9.66577L814.094 13.2904C806.477 40.9742 798.979 69.1526 791.598 97.8257Z" fill="#7F244A"/>
</g>
<g opacity="0.5">
<path d="M636.924 520.66L637.462 498.203C667.798 498.072 700.192 497.196 734.643 495.576L734.104 515.249C701.229 516.816 668.836 518.62 636.924 520.66Z" fill="#7F244A"/>
<path d="M614.126 612.418L602.307 588.976C633.475 572.088 666.38 553.303 701.024 532.624L711.228 553.176C678.204 572.954 645.837 592.702 614.126 612.418Z" fill="#7F244A"/>
<path d="M784.415 657.424L788.617 680.157C758.097 686.697 725.638 694.41 691.24 703.297L687.72 683.387C720.517 674.869 752.748 666.214 784.415 657.424Z" fill="#7F244A"/>
<path d="M830.523 718.596L808.198 724.48C799.39 694.537 789.274 662.747 777.849 629.11L797.416 624.119C808.351 656.172 819.386 687.664 830.523 718.596Z" fill="#7F244A"/>
<path d="M619.077 525.992L637.896 544.378C613.907 570.468 588.881 598.922 562.818 629.74L546.494 613.6C571.288 584.13 595.483 554.927 619.077 525.992Z" fill="#7F244A"/>
<path d="M765.885 921.247L739.83 924.544C734.393 889.523 727.753 852.217 719.908 812.627L742.706 809.921C750.244 847.656 757.97 884.765 765.885 921.247Z" fill="#7F244A"/>
<path d="M747.736 483.757L735.549 500.921C711.91 485.162 686.285 468.851 658.671 451.989L669.44 437.07C695.81 453.083 721.909 468.645 747.736 483.757Z" fill="#7F244A"/>
<path d="M386.751 820.244L376.901 795.843C409.409 781.563 443.811 765.533 480.109 747.751L488.527 769.144C453.963 786.164 420.037 803.197 386.751 820.244Z" fill="#7F244A"/>
<path d="M449.222 736.588L455.696 711.084C490.348 718.807 527.557 726.248 567.322 733.41L561.518 755.657C523.574 748.889 486.142 742.533 449.222 736.588Z" fill="#7F244A"/>
<path d="M777.533 873.746L758.281 855.82C781.718 829.152 806.136 800.094 831.534 768.645L848.239 784.404C824.075 814.461 800.507 844.241 777.533 873.746Z" fill="#7F244A"/>
<path d="M495.093 839.391L488.12 864.737C457.285 856.788 424.126 849.109 388.642 841.702L394.88 819.587C428.753 826.6 462.157 833.201 495.093 839.391Z" fill="#7F244A"/>
<path d="M757.743 586.284L732.174 580.269C739.318 545.546 746.125 508.267 752.595 468.431L774.92 473.868C768.722 511.865 762.996 549.337 757.743 586.284Z" fill="#7F244A"/>
<path d="M665.356 757.009L640.404 748.815C650.49 714.827 660.462 678.27 670.32 639.143L692.08 646.458C682.73 683.799 673.822 720.649 665.356 757.009Z" fill="#7F244A"/>
<path d="M834.108 543.944L844.745 567.964C812.755 583.233 778.925 600.306 743.258 619.182L734.065 598.169C768.087 580.09 801.435 562.015 834.108 543.944Z" fill="#7F244A"/>
<path d="M733.251 805.903L710.925 788.673C733.014 758.52 755.895 725.767 779.569 690.414L798.979 705.621C776.452 739.372 754.543 772.8 733.251 805.903Z" fill="#7F244A"/>
<path d="M447.357 882.952L430.18 905.278C399.975 883.285 367.144 860.491 331.686 836.896L346.841 817.512C380.688 839.925 414.193 861.739 447.357 882.952Z" fill="#7F244A"/>
<path d="M324.45 768.448L296.308 767.949C295.984 730.573 294.732 690.637 292.552 648.139L317.149 648.756C319.294 689.284 321.728 729.181 324.45 768.448Z" fill="#7F244A"/>
<path d="M318.764 673.302L345.594 664.739C357.912 700.022 371.92 737.437 387.617 776.984L364.123 784.299C349.091 746.617 333.971 709.618 318.764 673.302Z" fill="#7F244A"/>
<path d="M766.292 649.177L746.895 666.88C722.259 641.402 695.32 614.756 666.078 586.941L683.15 571.575C711.07 598.06 738.784 623.927 766.292 649.177Z" fill="#7F244A"/>
<path d="M693.394 616.647L693.131 636.845C665.868 637.274 636.74 638.377 605.748 640.155L606.102 622.504C635.676 620.744 664.774 618.792 693.394 616.647Z" fill="#7F244A"/>
<path d="M568.163 637.528L585.983 628.007C599.519 651.646 614.551 676.62 631.08 702.929L615.439 711.15C599.654 686.11 583.895 661.57 568.163 637.528Z" fill="#7F244A"/>
<path d="M546.455 712.87L553.021 693.762C579.067 701.834 607.083 709.858 637.069 717.834L631.225 734.5C602.631 726.953 574.374 719.743 546.455 712.87Z" fill="#7F244A"/>
<path d="M632.984 819.744L613.049 823.014C607.858 796.25 601.681 767.765 594.519 737.56L611.973 734.815C618.871 763.62 625.875 791.929 632.984 819.744Z" fill="#7F244A"/>
<path d="M335.744 751.888L354.419 759.583C344.788 785.087 335.079 812.57 325.291 842.031L309.007 835.241C318.296 807.102 327.208 779.318 335.744 751.888Z" fill="#7F244A"/>
<path d="M707.84 830.697L688.023 826.758C692.558 799.862 696.764 771.018 700.643 740.226L717.938 743.785C714.261 773.167 710.895 802.138 707.84 830.697Z" fill="#7F244A"/>
<path d="M809.695 537.943L789.589 539.886C786.192 512.833 781.915 483.998 776.759 453.381L794.343 451.805C799.307 481.004 804.424 509.716 809.695 537.943Z" fill="#7F244A"/>
<path d="M707.695 701.287L722.443 715.09C704.399 735.524 685.576 757.797 665.973 781.909L653.169 769.748C671.826 746.731 690.001 723.911 707.695 701.287Z" fill="#7F244A"/>
<path d="M523.814 859.392L524.353 836.935C554.689 836.804 587.082 835.928 621.533 834.309L620.916 853.942C588.058 855.544 555.691 857.361 523.814 859.392Z" fill="#7F244A"/>
<path d="M499.9 716.784L492.257 695.654C520.465 684.526 550.355 671.958 581.925 657.949L588.492 676.467C558.401 689.871 528.87 703.31 499.9 716.784Z" fill="#7F244A"/>
<path d="M826.215 406.93L830.418 429.676C799.898 436.216 767.439 443.925 733.041 452.803L729.521 432.907C762.344 424.379 794.575 415.721 826.215 406.93Z" fill="#7F244A"/>
<path d="M494.109 748.184L517.195 749.353C516.512 780.556 516.512 813.918 517.195 849.438L497.024 848.269C496.324 814.386 495.352 781.025 494.109 748.184Z" fill="#7F244A"/>
<path d="M412.49 752.61L389.837 747.987C395.204 717.239 400.212 684.259 404.86 649.045L424.559 653.222C420.234 686.833 416.211 719.962 412.49 752.61Z" fill="#7F244A"/>
<path d="M378.215 654.509L376.297 631.474C407.307 627.972 440.366 623.507 475.474 618.078L476.971 638.25C443.527 643.503 410.608 648.923 378.215 654.509Z" fill="#7F244A"/>
<path d="M644.515 925.03L618.946 919.002C626.09 884.279 632.897 847.004 639.367 807.177L661.692 812.6C655.572 850.598 649.846 888.074 644.515 925.03Z" fill="#7F244A"/>
<path d="M434.842 728.932L418.781 708.156C446.202 685.69 474.979 661.036 505.114 634.192L519.008 652.46C490.318 678.113 462.263 703.603 434.842 728.932Z" fill="#7F244A"/>
<path d="M578.997 -12.8962L581.623 13.2379C546.455 17.7555 508.979 23.4113 469.196 30.2053L467.095 7.35441C505.022 0.814318 542.322 -5.9359 578.997 -12.8962Z" fill="#7F244A"/>
<path d="M863.249 398.683L843.865 416.399C819.211 390.948 792.255 364.297 762.996 336.447L780.068 321.095C808.014 347.588 835.741 373.451 863.249 398.683Z" fill="#7F244A"/>
<path d="M724.912 -41.4993L739.489 -27.4998C721.173 -7.30167 702.083 14.7219 682.218 38.5709L669.571 26.2656C688.491 3.50218 706.938 -19.0861 724.912 -41.4993Z" fill="#7F244A"/>
<path d="M776.312 276.733L794.133 267.212C807.668 290.851 822.696 315.803 839.216 342.068L823.589 350.276C807.795 325.289 792.036 300.775 776.312 276.733Z" fill="#7F244A"/>
<path d="M628.152 439.565L631.422 419.63C658.448 423.255 687.414 426.498 718.319 429.361L715.338 446.762C685.825 444.083 656.763 441.684 628.152 439.565Z" fill="#7F244A"/>
<path d="M547.374 835.635L527.399 823.671C542.764 796.25 558.523 766.583 574.676 734.671L592.064 745.256C576.699 775.706 561.802 805.832 547.374 835.635Z" fill="#7F244A"/>
<path d="M845.166 735.196L850.419 754.698C824.311 762.578 796.593 771.609 767.264 781.791L762.786 764.718C790.749 754.948 818.209 745.107 845.166 735.196Z" fill="#7F244A"/>
<path d="M696.532 876.675L676.427 878.579C673.021 851.526 668.744 822.695 663.596 792.087L681.181 790.59C686.145 819.744 691.262 848.439 696.532 876.675Z" fill="#7F244A"/>
<path d="M540.164 672.08L520.045 669.94C522.164 642.799 523.779 613.697 524.891 582.633L542.436 584.629C541.438 614.248 540.681 643.398 540.164 672.08Z" fill="#7F244A"/>
</g>
<g opacity="0.5">
<path d="M910.539 769.289L894.202 780.189C877.331 750.062 860.938 722.09 845.021 696.271L863.8 683.939C878.894 712.087 894.473 740.537 910.539 769.289Z" fill="#7F244A"/>
<path d="M930.632 729.798L907.794 731.992C907.05 691.648 905.61 653.782 903.474 618.394L929.634 616.069C929.651 653.41 929.984 691.32 930.632 729.798Z" fill="#7F244A"/>
<path d="M1028.77 641.048L1047.54 633.522C1058.17 667.431 1068.76 699.063 1079.33 728.419L1057.82 736.877C1048.55 705.332 1038.86 673.389 1028.77 641.048Z" fill="#7F244A"/>
<path d="M1036.4 765.493L1030.29 746.227C1064.9 738.155 1097.24 729.947 1127.3 721.604L1134.12 743.693C1101.97 750.592 1069.4 757.859 1036.4 765.493Z" fill="#7F244A"/>
<path d="M894.859 558.036L917.184 563.381C904.787 601.781 893.843 638.062 884.353 672.225L858.863 665.934C870.98 630.607 882.978 594.641 894.859 558.036Z" fill="#7F244A"/>
<path d="M996.359 426.643L973.732 430.753C969.652 390.541 965.082 352.863 960.022 317.72L985.945 313.242C989.045 350.486 992.516 388.286 996.359 426.643Z" fill="#7F244A"/>
<path d="M1023.44 495.734L1007.61 512.413C980.526 482.417 954.55 454.76 929.686 429.44L947.927 410.49C972.476 438.664 997.646 467.078 1023.44 495.734Z" fill="#7F244A"/>
<path d="M989.688 320.438L1005.17 303.458C1030.22 329.671 1054.26 353.747 1077.29 375.688L1059.45 394.993C1036.78 370.365 1013.53 345.513 989.688 320.438Z" fill="#7F244A"/>
<path d="M896.947 825.72L880.558 809.645C910.946 783.1 938.997 757.627 964.71 733.226L983.332 751.743C954.747 775.794 925.952 800.452 896.947 825.72Z" fill="#7F244A"/>
<path d="M999.722 664.266L982.019 649.649C1010.03 620.6 1035.8 592.82 1059.32 566.309L1079.49 583.158C1053.07 609.573 1026.48 636.609 999.722 664.266Z" fill="#7F244A"/>
<path d="M980.903 725.491L1003.61 722.129C1006.42 762.403 1009.79 800.142 1013.73 835.346L987.731 839.01C985.805 801.731 983.529 763.891 980.903 725.491Z" fill="#7F244A"/>
<path d="M1106.44 723.771L1083.3 715.379C1100.81 676.602 1116.53 639.87 1130.46 605.182L1156.85 614.966C1139.99 650.547 1123.18 686.815 1106.44 723.771Z" fill="#7F244A"/>
<path d="M962.609 280.83L971.067 257.717C1009.8 275.332 1046.49 291.148 1081.13 305.165L1071.27 331.536C1035.7 314.577 999.485 297.675 962.609 280.83Z" fill="#7F244A"/>
<path d="M919.272 273.239L895.883 265.609C912.124 226.281 926.648 189.072 939.457 153.981L966.115 162.846C950.427 198.961 934.812 235.759 919.272 273.239Z" fill="#7F244A"/>
<path d="M944.802 316.656L952.248 340.138C910.828 349.891 872.127 359.81 836.144 369.896L827.818 343C866.296 334.674 905.29 325.893 944.802 316.656Z" fill="#7F244A"/>
<path d="M931.433 696.244L935.451 673.708C974.507 683.829 1011.37 692.624 1046.03 700.092L1041.23 725.911C1005.27 715.851 968.667 705.962 931.433 696.244Z" fill="#7F244A"/>
<path d="M933.967 603.934L948.767 594.308C963.651 621.563 978.097 646.874 992.105 670.241L975.032 681.142C961.795 655.69 948.106 629.955 933.967 603.934Z" fill="#7F244A"/>
<path d="M1014.15 565.022L1015.47 582.633C984.422 582.493 955.277 582.931 928.031 583.947L926.718 563.788C955.399 564.401 984.545 564.812 1014.15 565.022Z" fill="#7F244A"/>
<path d="M1042.31 566.086L1031.25 579.849C1008.64 558.574 987.018 539.019 966.391 521.185L979.169 505.531C999.735 525.589 1020.78 545.774 1042.31 566.086Z" fill="#7F244A"/>
<path d="M1032.43 549.591L1025.54 533.333C1054.97 523.457 1082.42 513.651 1107.88 503.916L1115.64 522.564C1088.25 531.205 1060.51 540.214 1032.43 549.591Z" fill="#7F244A"/>
<path d="M1062.59 245.805L1078.84 238.897C1088.73 268.324 1098.55 295.767 1108.3 321.226L1089.65 328.988C1081 301.611 1071.98 273.883 1062.59 245.805Z" fill="#7F244A"/>
<path d="M957.566 239.304L972.012 249.509C952.156 273.384 933.95 296.147 917.394 317.799L901.005 305.979C919.732 284.258 938.585 262.033 957.566 239.304Z" fill="#7F244A"/>
<path d="M1096.01 634.757L1083.85 621.952C1107.94 602.385 1130.21 583.561 1150.64 565.482L1164.44 580.23C1141.83 597.959 1119.02 616.135 1096.01 634.757Z" fill="#7F244A"/>
<path d="M888.503 853.929L880.544 838.17C909.252 826.359 935.99 814.754 960.757 803.355L969.727 821.465C942.98 831.892 915.906 842.714 888.503 853.929Z" fill="#7F244A"/>
<path d="M1083.86 566.125L1100.93 570.577C1090.8 599.925 1081.83 627.661 1074.01 653.786L1054.51 648.533C1064.39 621.541 1074.17 594.072 1083.86 566.125Z" fill="#7F244A"/>
<path d="M1138.33 494.237L1122 505.137C1105.13 475.01 1088.73 447.038 1072.82 421.219L1091.6 408.887C1106.72 437.026 1122.3 465.476 1138.33 494.237Z" fill="#7F244A"/>
<path d="M970.489 560.426L951.289 564.707C946.491 530.509 941.365 498.496 935.911 468.667L957.881 463.992C961.76 495.66 965.962 527.804 970.489 560.426Z" fill="#7F244A"/>
<path d="M1068.01 392.051L1079.66 408.559C1049.14 426.735 1020.81 444.354 994.679 461.418L981.546 442.428C1010.07 426.135 1038.89 409.342 1068.01 392.051Z" fill="#7F244A"/>
<path d="M864.116 433.616L850.116 419.039C877.563 396.477 902.922 374.799 926.193 354.006L942.083 370.789C916.37 391.197 890.381 412.14 864.116 433.616Z" fill="#7F244A"/>
<path d="M1122.65 282.984L1144.98 288.329C1132.58 326.729 1121.64 363.01 1112.15 397.173L1086.65 390.882C1098.77 355.555 1110.77 319.589 1122.65 282.984Z" fill="#7F244A"/>
<path d="M835.224 201.771L855.159 190.425C872.407 226.907 889.26 260.847 905.719 292.243L882.829 305.099C867.491 271.033 851.622 236.59 835.224 201.771Z" fill="#7F244A"/>
<path d="M1124.7 550.668L1108.38 534.594C1138.78 508.057 1166.83 482.584 1192.55 458.174L1211.09 476.718C1182.53 500.751 1153.73 525.401 1124.7 550.668Z" fill="#7F244A"/>
<path d="M913.375 514.146L890.512 512.005C897.393 472.239 903.123 434.781 907.702 399.629L933.836 402.255C926.814 438.939 919.994 476.236 913.375 514.146Z" fill="#7F244A"/>
<path d="M1046.66 272.622L1033.52 284.35C1014.76 259.617 996.701 236.739 979.34 215.718L994.534 202.402C1011.47 225.612 1028.84 249.018 1046.66 272.622Z" fill="#7F244A"/>
<path d="M1030.77 527.174L1012.6 517.981C1031.15 487.382 1048 458.319 1063.16 430.793L1083.87 441.43C1066.2 469.447 1048.5 498.028 1030.77 527.174Z" fill="#7F244A"/>
<path d="M1199.37 252.148L1203.46 272.084C1167.95 276.54 1134.68 281.356 1103.65 286.53L1099.19 263.718C1132.12 260.208 1165.52 256.351 1199.37 252.148Z" fill="#7F244A"/>
<path d="M1116.26 578.877L1108.3 563.118C1137.01 551.307 1163.75 539.702 1188.51 528.303L1197.5 546.4C1170.76 556.854 1143.68 567.68 1116.26 578.877Z" fill="#7F244A"/>
<path d="M868.187 569.96L857.208 556.131C882.956 538.787 906.814 522.034 928.78 505.872L941.216 521.802C917.105 537.369 892.762 553.421 868.187 569.96Z" fill="#7F244A"/>
</g>
<g opacity="0.5">
<path d="M1179.6 736.115L1198.42 754.501C1174.43 780.6 1149.4 809.054 1123.34 839.864L1107.07 823.671C1131.83 794.236 1156 765.051 1179.6 736.115Z" fill="#7F244A"/>
<path d="M881.03 931.294L852.887 930.781C852.563 893.415 851.311 853.482 849.131 810.985L873.729 811.602C875.874 852.13 878.307 892.027 881.03 931.294Z" fill="#7F244A"/>
<path d="M938.695 864.632L936.778 841.597C967.788 838.095 1000.85 833.63 1035.95 828.202L1037.46 848.373C1004.01 853.627 971.088 859.046 938.695 864.632Z" fill="#7F244A"/>
<path d="M995.361 939.055L979.3 918.279C1006.69 895.813 1035.47 871.155 1065.63 844.302L1079.49 862.57C1050.82 888.231 1022.77 913.726 995.361 939.055Z" fill="#7F244A"/>
<path d="M1139.52 197.227L1142.14 223.361C1106.97 227.879 1069.49 233.535 1029.72 240.329L1027.61 217.465C1065.54 210.933 1102.84 204.187 1139.52 197.227Z" fill="#7F244A"/>
<path d="M1100.68 882.203L1080.6 880.063C1082.72 852.878 1084.34 823.772 1085.45 792.743L1102.99 794.753C1101.97 824.371 1101.2 853.522 1100.68 882.203Z" fill="#7F244A"/>
</g>
<g opacity="0.5">
<path d="M-78.309 555.37L-84.4156 536.104C-49.8072 528.032 -17.4707 519.828 12.5939 511.493L19.4097 533.582C-12.7386 540.464 -45.3115 547.726 -78.309 555.37Z" fill="#7F244A"/>
<path d="M53.8429 404.553L44.0986 383.778C81.8675 369.515 117.071 355.437 149.71 341.543L160.689 365.405C125.502 377.96 89.8871 391.009 53.8429 404.553Z" fill="#7F244A"/>
<path d="M202.24 268.026L212.969 282.971C185.312 299.754 159.651 316.008 135.987 331.732L123.839 314.542C149.666 299.492 175.8 283.986 202.24 268.026Z" fill="#7F244A"/>
<path d="M273.864 283.943L251.25 288.027C247.153 247.815 242.583 210.137 237.54 174.994L263.45 170.502C266.558 207.773 270.029 245.586 273.864 283.943Z" fill="#7F244A"/>
<path d="M171.247 417.621L149.014 411.763C162.286 373.591 174.057 337.511 184.327 303.523L209.712 310.405C196.79 345.531 183.968 381.269 171.247 417.621Z" fill="#7F244A"/>
<path d="M-8.27358 513.647L-31.413 505.255C-13.903 466.47 1.81653 429.738 15.7457 395.059L42.1419 404.856C25.2799 440.419 8.47468 476.683 -8.27358 513.647Z" fill="#7F244A"/>
<path d="M-82.2751 339.481L-89.1696 323.223C-59.7354 313.347 -32.2885 303.537 -6.82908 293.792L0.932201 312.441C-26.4621 321.082 -54.1979 330.095 -82.2751 339.481Z" fill="#7F244A"/>
<path d="M-18.7008 424.646L-30.8615 411.842C-6.75904 392.257 15.5049 373.433 35.9302 355.371L49.7324 370.119C27.0833 387.84 4.27223 406.015 -18.7008 424.646Z" fill="#7F244A"/>
<path d="M23.6383 284.113L7.30154 295.013C-9.56929 264.887 -25.963 236.914 -41.8795 211.095L-23.1001 198.764C-7.99777 226.92 7.5817 255.37 23.6383 284.113Z" fill="#7F244A"/>
<path d="M43.7309 244.623L20.8804 246.895C20.1275 206.543 18.6917 168.677 16.573 133.297L42.7197 130.959C42.746 168.256 43.0831 206.144 43.7309 244.623Z" fill="#7F244A"/>
<path d="M141.83 155.872L160.623 148.4C171.26 182.3 181.862 213.928 192.43 243.284L170.906 251.741C161.634 220.17 151.942 188.214 141.83 155.872Z" fill="#7F244A"/>
<path d="M149.487 280.318L143.38 261.052C177.98 252.98 210.316 244.772 240.389 236.428L247.205 258.531C215.074 265.412 182.502 272.675 149.487 280.318Z" fill="#7F244A"/>
<path d="M7.94484 72.8735L30.27 78.2054C17.873 116.623 6.92926 152.904 -2.56113 187.049L-28.0644 180.759C-15.9387 145.449 -3.93566 109.488 7.94484 72.8735Z" fill="#7F244A"/>
<path d="M9.9935 340.545L-6.39581 324.47C24.0102 297.933 52.0655 272.46 77.7701 248.051L96.3788 266.594C67.8201 290.627 39.025 315.277 9.9935 340.545Z" fill="#7F244A"/>
<path d="M112.808 179.091L95.105 164.487C123.121 135.438 148.887 107.653 172.403 81.134L192.548 97.9964C166.152 124.393 139.572 151.425 112.808 179.091Z" fill="#7F244A"/>
<path d="M94.002 240.329L116.708 236.967C119.518 277.24 122.893 314.984 126.833 350.197L100.818 353.861C98.9004 316.555 96.6285 278.711 94.002 240.329Z" fill="#7F244A"/>
<path d="M199.85 218.922L178.522 206.657C202.459 171.487 224.285 138.025 244.001 106.27L268.309 120.48C245.564 152.602 222.744 185.417 199.85 218.922Z" fill="#7F244A"/>
<path d="M44.5188 211.069L48.5898 188.468C87.6545 198.589 124.513 207.383 159.165 214.851L154.372 240.67C118.38 230.654 81.7624 220.787 44.5188 211.069Z" fill="#7F244A"/>
<path d="M47.0533 118.772L61.8536 109.133C76.7371 136.388 91.1828 161.703 105.191 185.08L88.1185 195.967C74.8985 170.515 61.2101 144.784 47.0533 118.772Z" fill="#7F244A"/>
<path d="M127.24 79.847L128.554 97.458C97.5084 97.3092 68.3631 97.7469 41.1176 98.7713L39.8044 78.6125C68.4856 79.2604 97.631 79.6719 127.24 79.847Z" fill="#7F244A"/>
<path d="M155.409 80.9107L144.339 94.6738C121.725 73.4076 100.109 53.853 79.4906 36.01L92.2554 20.3689C112.821 40.4094 133.872 60.59 155.409 80.9107Z" fill="#7F244A"/>
<path d="M145.521 64.4161L138.626 48.1709C168.06 38.2776 195.512 28.4674 220.98 18.7405L228.728 37.3889C201.342 46.0303 173.607 55.0393 145.521 64.4161Z" fill="#7F244A"/>
<path d="M84.6649 42.0247L88.7491 61.9733C53.2389 66.4121 19.97 71.2274 -11.0576 76.4192L-15.5621 53.5683C17.4004 50.0838 50.8094 46.2359 84.6649 42.0247Z" fill="#7F244A"/>
<path d="M22.7847 451.766L39.6468 446.512C46.4844 476.788 53.4621 505.089 60.5799 531.415L41.2358 537.233C35.4225 509.147 29.2721 480.658 22.7847 451.766Z" fill="#7F244A"/>
<path d="M1.5888 368.767L-6.36948 353.007C22.3381 341.214 49.0758 329.614 73.8436 318.206L82.8262 336.303C56.0622 346.739 28.9831 357.56 1.5888 368.767Z" fill="#7F244A"/>
<path d="M31.3994 48.2891L19.5802 35.1564C44.1204 16.1928 66.8177 -2.07048 87.672 -19.6333L101.12 -4.55694C78.0853 12.5944 54.8453 30.2097 31.3994 48.2891Z" fill="#7F244A"/>
<path d="M196.987 80.9631L214.059 85.3626C203.921 114.701 194.947 142.433 187.137 168.558L167.622 163.305C177.472 136.374 187.26 108.927 196.987 80.9631Z" fill="#7F244A"/>
<path d="M237.409 97.8257L220.008 94.7921C227.704 64.7181 234.379 36.3427 240.035 9.66577L259.904 13.2904C252.288 40.9742 244.789 69.1526 237.409 97.8257Z" fill="#7F244A"/>
</g>
<g opacity="0.5">
<path d="M82.7343 520.66L83.2727 498.203C113.609 498.072 146.002 497.196 180.453 495.576L179.915 515.249C147.04 516.816 114.646 518.62 82.7343 520.66Z" fill="#7F244A"/>
<path d="M59.9364 612.418L48.1172 588.976C79.2761 572.088 112.182 553.303 146.834 532.624L157.038 553.176C124.014 572.954 91.6469 592.702 59.9364 612.418Z" fill="#7F244A"/>
<path d="M230.225 657.424L234.428 680.157C203.908 686.697 171.449 694.41 137.05 703.297L133.531 683.387C166.327 674.869 198.558 666.214 230.225 657.424Z" fill="#7F244A"/>
<path d="M276.333 718.596L254.008 724.48C245.192 694.537 235.075 662.747 223.659 629.11L243.226 624.119C254.161 656.172 265.197 687.664 276.333 718.596Z" fill="#7F244A"/>
<path d="M64.8875 525.992L83.7063 544.378C59.7089 570.468 34.6828 598.922 8.62802 629.74L-7.69563 613.548C17.0985 584.113 41.2928 554.927 64.8875 525.992Z" fill="#7F244A"/>
<path d="M211.695 921.247L185.64 924.544C180.204 889.523 173.563 852.217 165.718 812.627L188.516 809.921C196.054 847.656 203.781 884.765 211.695 921.247Z" fill="#7F244A"/>
<path d="M193.546 483.757L181.359 500.921C157.721 485.162 132.095 468.851 104.482 451.989L115.25 437.07C141.62 453.083 167.719 468.645 193.546 483.757Z" fill="#7F244A"/>
<path d="M-104.968 736.588L-98.4935 711.084C-63.8413 718.807 -26.6327 726.248 13.1324 733.41L7.34101 755.644C-30.6118 748.885 -68.0481 742.533 -104.968 736.588Z" fill="#7F244A"/>
<path d="M223.344 873.746L204.091 855.82C227.537 829.152 251.955 800.094 277.344 768.645L294.049 784.404C269.885 814.461 246.317 844.241 223.344 873.746Z" fill="#7F244A"/>
<path d="M203.553 586.284L177.984 580.269C185.128 545.546 191.935 508.267 198.405 468.431L220.73 473.868C214.532 511.865 208.806 549.337 203.553 586.284Z" fill="#7F244A"/>
<path d="M111.166 757.009L86.2144 748.815C96.3002 714.827 106.272 678.27 116.13 639.143L137.891 646.458C128.54 683.799 119.632 720.649 111.166 757.009Z" fill="#7F244A"/>
<path d="M279.918 543.944L290.556 567.964C258.565 583.233 224.736 600.306 189.068 619.182L179.875 598.169C213.897 580.09 247.245 562.015 279.918 543.944Z" fill="#7F244A"/>
<path d="M179.061 805.903L156.801 788.673C178.89 758.52 201.771 725.767 225.445 690.414L244.789 705.621C222.271 739.372 200.362 772.8 179.061 805.903Z" fill="#7F244A"/>
<path d="M212.102 649.177L192.706 666.88C168.069 641.402 141.13 614.756 111.888 586.941L128.961 571.575C156.88 598.06 184.594 623.927 212.102 649.177Z" fill="#7F244A"/>
<path d="M139.204 616.647L138.941 636.845C111.678 637.274 82.5505 638.377 51.5579 640.155L51.9256 622.491C81.4911 620.74 110.584 618.792 139.204 616.647Z" fill="#7F244A"/>
<path d="M13.9729 637.528L31.7937 628.007C45.3376 651.646 60.3699 676.62 76.8905 702.929L61.2498 711.15C45.4646 686.11 29.7056 661.57 13.9729 637.528Z" fill="#7F244A"/>
<path d="M-7.73503 712.87L-1.1688 693.762C24.8772 701.834 52.8932 709.858 82.8789 717.834L77.035 734.5C48.4413 726.953 20.1846 719.743 -7.73503 712.87Z" fill="#7F244A"/>
<path d="M78.7947 819.744L58.8597 823.014C53.668 796.25 47.4913 767.765 40.3298 737.56L57.7828 734.815C64.6817 763.62 71.6857 791.929 78.7947 819.744Z" fill="#7F244A"/>
<path d="M153.65 830.697L133.833 826.758C138.368 799.862 142.575 771.018 146.453 740.226L163.749 743.785C160.072 773.167 156.705 802.138 153.65 830.697Z" fill="#7F244A"/>
<path d="M255.505 537.943L235.399 539.886C232.002 512.833 227.726 483.998 222.569 453.381L240.153 451.805C245.117 481.004 250.235 509.716 255.505 537.943Z" fill="#7F244A"/>
<path d="M153.505 701.287L168.253 715.09C150.209 735.524 131.386 757.797 111.783 781.909L98.9793 769.748C117.636 746.731 135.811 723.911 153.505 701.287Z" fill="#7F244A"/>
<path d="M-30.3755 859.392L-29.8371 836.935C0.498913 836.804 32.8923 835.928 67.3431 834.309L66.7259 853.942C33.8597 855.544 1.4926 857.361 -30.3755 859.392Z" fill="#7F244A"/>
<path d="M-54.2896 716.784L-61.9327 695.654C-33.7242 684.526 -3.83472 671.958 27.7357 657.949L34.3019 676.467C4.2111 689.871 -25.3194 703.31 -54.2896 716.784Z" fill="#7F244A"/>
<path d="M272.026 406.93L276.228 429.676C245.708 436.216 213.249 443.925 178.851 452.803L175.331 432.907C208.154 424.379 240.385 415.721 272.026 406.93Z" fill="#7F244A"/>
<path d="M90.3249 925.03L64.756 919.002C71.9001 884.279 78.707 847.004 85.177 807.177L107.502 812.6C101.374 850.598 95.6479 888.074 90.3249 925.03Z" fill="#7F244A"/>
<path d="M24.8072 -12.8962L27.4337 13.2379C-7.735 17.7555 -45.2107 23.4113 -84.9933 30.2053L-87.0945 7.35441C-49.1679 0.814318 -11.8674 -5.9359 24.8072 -12.8962Z" fill="#7F244A"/>
<path d="M309.059 398.683L289.676 416.399C265.03 390.948 238.074 364.297 208.806 336.447L225.878 321.095C253.824 347.588 281.551 373.451 309.059 398.683Z" fill="#7F244A"/>
<path d="M170.722 -41.4993L185.299 -27.4998C166.983 -7.30167 147.893 14.7219 128.028 38.5709L115.382 26.2656C134.31 3.50218 152.757 -19.0861 170.722 -41.4993Z" fill="#7F244A"/>
<path d="M222.122 276.733L239.943 267.212C253.487 290.851 268.515 315.803 285.027 342.068L269.399 350.276C253.605 325.289 237.846 300.775 222.122 276.733Z" fill="#7F244A"/>
<path d="M73.9619 439.565L77.2319 419.63C104.258 423.255 133.224 426.498 164.129 429.361L161.148 446.762C131.635 444.083 102.573 441.684 73.9619 439.565Z" fill="#7F244A"/>
<path d="M-6.81595 835.635L-26.7904 823.671C-11.4254 796.25 4.33351 766.583 20.4864 734.671L37.8738 745.256C22.5088 775.706 7.61225 805.832 -6.81595 835.635Z" fill="#7F244A"/>
<path d="M290.976 735.196L296.229 754.698C270.121 762.578 242.403 771.609 213.074 781.791L208.596 764.718C236.559 754.948 264.019 745.107 290.976 735.196Z" fill="#7F244A"/>
<path d="M142.343 876.675L122.237 878.579C118.831 851.526 114.554 822.695 109.406 792.087L126.991 790.59C131.955 819.744 137.072 848.439 142.343 876.675Z" fill="#7F244A"/>
</g>
</g>
</g>
</svg>
