<svg width="1315" height="1102" viewBox="0 0 1315 1102" fill="none" xmlns="http://www.w3.org/2000/svg">
<path d="M9.61776 207.547C35.7547 355.043 171.565 688.266 319.626 822.979C621.959 1097.67 1152.88 971.088 1152.88 971.088L1169.44 923.835C618.691 940.267 335.891 306.602 246.883 98.3088L9.61776 207.547Z" fill="#FA9A17"/>
<path d="M1167.5 920.727C1177.39 910.389 1189.96 901.955 1204.11 899.125C1212.15 897.481 1219.86 898.552 1228.09 898.444C1231.42 898.264 1235.93 909.752 1234.72 910.791C1225.53 917.701 1220.95 916.696 1210.45 920.198C1202.07 922.774 1194.23 927.96 1193.15 937.452C1192.08 946.943 1198.74 955.942 1208.25 959.023C1214.53 961.159 1221.34 960.333 1227.47 957.583C1233.16 954.887 1240.47 952.664 1244 946.886C1248.86 939.164 1245.63 929.081 1246.29 919.862C1246.55 916.488 1247.47 913.033 1249.62 910.543C1251.99 908.027 1255.86 906.889 1258.74 908.546C1261.62 910.203 1262.73 913.857 1263.35 917.125C1265.1 926.051 1266 935.302 1265.77 944.468C1265.55 951.849 1264.51 959.777 1258.15 964.337C1254.24 967.039 1250.07 969.33 1246.16 972.032C1237.88 977.271 1232.69 984.141 1242.88 990.929C1251.12 996.393 1262.81 995.42 1272.07 994.521C1283.07 993.408 1293.62 992.13 1303.87 988.435C1304.5 988.135 1305.35 987.809 1306.04 987.949C1307.19 988.255 1307.76 989.3 1308.33 990.345C1313.23 1003.12 1293.4 1006.87 1284.94 1008.78C1274.72 1010.91 1263.88 1011.56 1253.6 1009.47C1248.36 1008.54 1243.26 1006.93 1238.33 1004.85C1234.11 1003.14 1229.84 999.197 1225.48 998.165C1230.85 1007.54 1241.86 1013.79 1251.7 1017.72C1255.45 1019.27 1281.15 1023.51 1272.89 1032.53C1271.51 1034.04 1269.37 1034.74 1267.2 1035.23C1258.27 1036.98 1247.14 1033.43 1239.25 1029.03C1228.52 1023.21 1217.4 1016.08 1208.59 1007.79C1208.78 1024.04 1228.23 1035.5 1230.45 1050.16C1230.38 1055.07 1224.41 1051.79 1221.8 1050.54C1219.2 1049.3 1216.9 1046.9 1214.85 1044.7C1203.56 1032.47 1192.91 1018.16 1179.12 1009.14C1167.01 1001.25 1154.91 993.352 1150.03 978.789C1143.02 957.797 1153.7 935.551 1167.5 920.727Z" fill="#FEC39C"/>
</svg>
