<svg width="1088" height="758" viewBox="0 0 1088 758" fill="none" xmlns="http://www.w3.org/2000/svg">
<path d="M228.533 409.458C223.886 417.333 215.868 423.594 209.569 430.436C199.214 441.814 190.518 455.106 177.69 464.124C173.878 466.705 170.209 469.261 166.205 471.582C159.523 475.402 152.069 478.182 145.58 482.263C142.407 484.291 134.872 494.144 131.197 493.318C126.927 492.45 123.44 488.504 122.949 484.031C121.785 470.706 141.089 464.227 141.788 451.457C142.172 443.595 141.232 434.054 133.69 432.143C112.617 426.873 80.6777 461.895 106.428 473.697C110.42 475.496 116.82 477.607 116.111 483.614C115.663 486.928 110.87 488.946 107.446 489.548C103.712 490.056 96.6561 489.237 93.4695 487.002C83.5993 480.206 74.9921 468.04 75.9761 455.22C77.0005 444.305 84.2826 435.526 92.8967 429.307C97.8669 425.787 101.04 423.759 107.63 420.249C112.751 417.585 117.308 415.902 122.672 413.783C114.964 409.254 104.157 409.682 95.5411 407.518C84.4676 404.757 71.9807 406.508 60.8126 406.558C56.6928 406.546 49.149 407.135 47.2234 402.032C45.3228 397.072 52.0377 394.275 55.4289 392.65C61.3804 389.693 68.396 388.608 75.0664 388.907C79.5217 389.154 82.1398 388.989 88.0467 389.128C94.5494 389.309 102.369 390.289 109.047 391.47C113.007 392.245 116.966 393.02 120.976 394.081C123.292 394.703 130.012 395.288 131.504 397.085C124.672 389.167 116.735 388.355 107.517 385.268C102.358 383.526 97.1236 381.357 92.0573 379.306C86.3452 376.926 80.2552 374.907 74.8709 371.882C72.0948 370.311 66.2247 366.194 66.4544 362.478C67.1781 349.85 114.87 371.035 119.619 372.113C122.84 372.87 126.372 373.721 129.551 375.074C118.333 363.956 113.277 360.285 103.831 347.531C101.71 344.668 94.4505 336.825 96.3247 333.261C99.2322 328.044 106.787 334.218 108.925 336.342C123.823 351.668 151.205 367.742 173.345 361.501C180.068 359.585 186.757 356.646 193.781 356.442C205.184 356.057 215.935 362.845 223.11 371.88C228.6 378.857 232.319 387.469 232.253 396.305C232.131 401.473 230.667 405.701 228.533 409.458Z" fill="#FEC39C"/>
<path d="M578.503 450.933C527.703 433.824 478.781 408.15 437.076 371.649C426.302 362.217 416.38 346.753 394.898 338.319C376.04 333.101 356.189 331.44 336.561 333.563C318.1 335.629 295.577 338.849 280.593 346.48C261.58 356.29 239.795 374.913 232.032 396.865C222.82 375.394 210.972 350.324 183.871 358.465C191.139 356.307 206.168 334.696 210.017 328.138C215.882 317.99 222.636 308.715 230.086 300.054C244.868 282.899 262.106 268.842 280.34 257.11C310.89 237.627 335.945 227.05 370.069 218.705C382.188 215.694 395.313 213.389 408.714 212.654C408.689 212.511 408.689 212.511 408.806 212.343C464.078 209.696 491.5 210 545.5 259C578.503 292.5 578.503 293.5 616 326.5C655.457 368.129 984.518 450.391 1028.53 464.869L1028.53 519.868C983.981 514.897 622.593 465.838 578.503 450.933Z" fill="#2C6FCC"/>
</svg>
