<svg width="313" height="201" viewBox="0 0 313 201" fill="none" xmlns="http://www.w3.org/2000/svg">
<path d="M242.539 130.989C219.463 126.366 196.728 117.909 176.533 104.335C171.316 100.827 166.134 94.6447 156.309 92.1677C147.806 90.9452 139.068 91.327 130.638 93.3445C122.713 95.2719 113.084 97.9282 106.983 102.086C99.249 107.417 89.7476 118.423 87.589 128.416C82.3818 119.578 76.8769 107.636 65.5279 112.691C68.573 111.346 73.915 101.098 75.2259 98.0273C77.2152 93.2813 79.6402 88.8662 82.4023 84.6793C87.8848 76.3852 94.6093 69.3037 101.897 63.1792C114.117 52.9934 124.44 46.9923 138.836 41.4579C143.946 39.4721 149.534 37.7376 155.329 36.6711C155.31 36.6104 155.31 36.6104 155.352 36.5308C179.276 32.3006 212.019 34.3884 225.726 50.4429C235.33 61.645 239.125 66.7927 250.412 76.3401C270.536 93.3324 282.569 96.0564 302.543 99.9107L301.871 136.143C282.192 136.459 262.57 135.026 242.539 130.989Z" fill="#FA9A17"/>
<path d="M87.3211 131.629C85.736 135.317 82.5925 138.49 80.2303 141.821C76.354 147.352 73.3072 153.625 68.2224 158.266C66.7061 159.603 65.2506 160.92 63.636 162.154C60.9386 164.19 57.8474 165.815 55.2484 167.954C53.9793 169.014 51.2465 173.724 49.6003 173.569C47.6923 173.429 45.9539 171.904 45.4909 169.984C44.2422 164.245 52.2885 160.349 51.8818 154.749C51.6114 151.304 50.6707 147.201 47.2799 146.789C37.8091 145.667 25.8493 162.697 37.7205 166.403C39.5594 166.964 42.4644 167.527 42.4897 170.183C42.4793 171.651 40.5044 172.797 39.0467 173.249C37.4488 173.679 34.3302 173.715 32.8181 172.919C28.1411 170.509 23.7154 165.69 23.4302 160.052C23.2685 155.241 25.9511 151.012 29.3564 147.824C31.3249 146.015 32.5941 144.955 35.2684 143.059C37.3501 141.614 39.2413 140.628 41.4591 139.406C37.8504 137.863 33.1675 138.651 29.2949 138.188C24.3187 137.602 18.9781 139.06 14.1171 139.704C12.3223 139.928 9.06977 140.605 7.94704 138.489C6.84316 136.435 9.61179 134.843 10.9982 133.946C13.4255 132.327 16.4204 131.464 19.342 131.223C21.296 131.083 22.427 130.865 25.0072 130.597C27.8493 130.314 31.3092 130.305 34.2832 130.447C36.0508 130.564 37.8185 130.681 39.6239 130.92C40.6669 131.062 43.6262 130.943 44.376 131.642C40.9599 128.574 37.4581 128.663 33.2714 127.831C30.9278 127.36 28.5276 126.707 26.207 126.096C23.5869 125.377 20.8223 124.837 18.3089 123.82C17.0125 123.29 14.2269 121.824 14.1199 120.192C13.7321 114.653 35.6816 121.223 37.8095 121.429C39.2546 121.579 40.84 121.753 42.2998 122.165C36.7955 117.948 34.389 116.631 29.5653 111.602C28.4825 110.474 24.8841 107.462 25.5018 105.805C26.4776 103.372 30.1115 105.64 31.1609 106.446C38.502 112.291 51.3221 117.767 60.6166 113.816C63.4377 112.607 66.1875 110.955 69.2347 110.475C74.1795 109.672 79.2396 112.03 82.8673 115.565C85.6468 118.298 87.7456 121.842 88.2087 125.693C88.4435 127.951 88.0415 129.874 87.3211 131.629Z" fill="#FEC39C"/>
</svg>
